HIERARCHY
ROOT Hips
{
	OFFSET 55.310501 45.591206 43.872097
	CHANNELS 6 Xposition Yposition Zposition Zrotation Xrotation Yrotation
	JOINT Chest
	{
		OFFSET -0.153500 1.163101 7.852402
		CHANNELS 6 Xposition Yposition Zposition Zrotation Xrotation Yrotation
		JOINT Chest2
		{
			OFFSET 0.000000 0.000000 3.343300
			CHANNELS 6 Xposition Yposition Zposition Zrotation Xrotation Yrotation
			JOINT Neck
			{
				OFFSET 0.000000 0.000000 7.785500
				CHANNELS 6 Xposition Yposition Zposition Zrotation Xrotation Yrotation
				JOINT Head
				{
					OFFSET 0.000000 0.000000 2.173901
					CHANNELS 6 Xposition Yposition Zposition Zrotation Xrotation Yrotation
					End Site
					{
						OFFSET 0.000000 0.000000 10.528198
					}
				}
			}
			JOINT LeftCollar
			{
				OFFSET 2.676300 -1.652401 4.938301
				CHANNELS 6 Xposition Yposition Zposition Zrotation Xrotation Yrotation
				JOINT LeftShoulder
				{
					OFFSET 4.299000 0.000000 0.000000
					CHANNELS 6 Xposition Yposition Zposition Zrotation Xrotation Yrotation
					JOINT LeftElbow
					{
						OFFSET 0.000000 0.000000 -10.245102
						CHANNELS 6 Xposition Yposition Zposition Zrotation Xrotation Yrotation
						JOINT LeftWrist
						{
							OFFSET 0.000000 0.000000 -12.703300
							CHANNELS 6 Xposition Yposition Zposition Zrotation Xrotation Yrotation
							End Site
							{
								OFFSET 0.000000 0.000000 -2.173901
							}
						}
					}
				}
			}
			JOINT RightCollar
			{
				OFFSET -2.534599 -1.686401 5.195000
				CHANNELS 6 Xposition Yposition Zposition Zrotation Xrotation Yrotation
				JOINT RightShoulder
				{
					OFFSET -4.144100 0.000000 0.000000
					CHANNELS 6 Xposition Yposition Zposition Zrotation Xrotation Yrotation
					JOINT RightElbow
					{
						OFFSET 0.000000 0.000000 -10.116501
						CHANNELS 6 Xposition Yposition Zposition Zrotation Xrotation Yrotation
						JOINT RightWrist
						{
							OFFSET 0.000000 0.000000 -12.937801
							CHANNELS 6 Xposition Yposition Zposition Zrotation Xrotation Yrotation
							End Site
							{
								OFFSET 0.000000 0.000000 -2.173901
							}
						}
					}
				}
			}
		}
	}
	JOINT LeftHip
	{
		OFFSET 2.175598 0.064499 -2.662899
		CHANNELS 6 Xposition Yposition Zposition Zrotation Xrotation Yrotation
		JOINT LeftKnee
		{
			OFFSET 0.000000 -0.000004 -18.585800
			CHANNELS 6 Xposition Yposition Zposition Zrotation Xrotation Yrotation
			JOINT LeftAnkle
			{
				OFFSET 0.000000 0.000000 -18.979500
				CHANNELS 6 Xposition Yposition Zposition Zrotation Xrotation Yrotation
				End Site
				{
					OFFSET 0.000000 -9.264000 0.000000
				}
			}
		}
	}
	JOINT RightHip
	{
		OFFSET -2.092400 -0.058102 -2.581200
		CHANNELS 6 Xposition Yposition Zposition Zrotation Xrotation Yrotation
		JOINT RightKnee
		{
			OFFSET 0.000000 -0.000004 -18.665001
			CHANNELS 6 Xposition Yposition Zposition Zrotation Xrotation Yrotation
			JOINT RightAnkle
			{
				OFFSET 0.000000 0.000000 -18.566601
				CHANNELS 6 Xposition Yposition Zposition Zrotation Xrotation Yrotation
				End Site
				{
					OFFSET 0.000000 -8.497601 0.000000
				}
			}
		}
	}
}
MOTION
Frames: 8
Frame Time: 0.041667
67.076797 5.743603 43.365501 2486.262296 0.936708 -8.495461 -0.153506 1.163099 7.852398 32.007738 15.930040 6.835424 0.000005 -0.000003 3.343304 -30.707561 -3.220403 -3.137186 0.000003 -0.000008 7.785497 45.327044 -6.840905 -5.817281 0.000004 -0.000002 2.173904 7.905304 -2.024231 7.678930 2.676289 -1.652407 4.938300 10.883977 -13.764496 0.619594 4.299006 0.000006 0.000005 -373.451904 -2.853666 284.636550 -0.000006 -0.000005 -10.245109 19.727152 704.819078 361.505712 0.000005 0.000002 -12.703300 874.280169 -173.029811 510.778266 -2.534602 -1.686404 5.195001 -7.543627 -17.591244 14.070588 -4.144103 -0.000003 0.000002 207.075817 187.889775 -79.374216 0.000001 0.000004 -10.116490 -404.308158 -369.285625 -368.997200 0.000005 -0.000010 -12.937807 -1727.460846 -7.691089 29.122260 2.175592 0.064497 -2.662898 -1064.695133 -8.510245 9.117865 0.000000 0.000003 -18.585806 541.875790 -211.766641 -169.902281 -0.000004 -0.000003 -18.979502 716.460288 7.951312 -736.249969 -2.092401 -0.058102 -2.581194 1347.043679 -33.434633 -55.551032 0.000006 0.000002 -18.665001 -1092.445591 146.907042 -638.765794 -0.000007 0.000009 -18.566601 641.909374 -9.428368 -455.091488
67.081802 5.724403 43.345493 2486.147330 1.032394 -8.569020 -0.153501 1.163109 7.852403 32.104925 15.935876 6.912955 -0.000005 -0.000001 3.343295 -30.713766 -3.232076 -3.137673 0.000003 0.000002 7.785496 45.711577 -6.807640 -5.885322 -0.000009 0.000001 2.173902 7.760554 -2.137884 7.754922 2.676302 -1.652393 4.938298 10.935993 -13.879778 0.674790 4.298997 0.000005 0.000002 -373.502939 -2.955583 284.658078 0.000002 -0.000001 -10.245107 19.636616 704.820826 361.484948 -0.000012 0.000011 -12.703308 874.396993 -173.013090 510.536587 -2.534595 -1.686400 5.194998 -7.565473 -17.685187 14.013424 -4.144104 0.000007 0.000005 207.043142 187.729266 -79.335892 -0.000014 -0.000004 -10.116492 -404.272859 -369.385264 -369.007745 0.000008 0.000000 -12.937804 -1727.566413 -7.661131 29.551664 2.175599 0.064501 -2.662902 -1064.560825 -8.683898 9.335902 0.000006 0.000000 -18.585808 541.284733 -211.939418 -169.690627 -0.000010 -0.000003 -18.979502 717.352748 8.003620 -737.256466 -2.092394 -0.058093 -2.581200 1346.974175 -33.486242 -55.672933 0.000001 0.000000 -18.665012 -1092.394993 146.985288 -638.879994 0.000006 0.000004 -18.566603 641.671192 -8.951989 -455.354123
67.086197 5.694592 43.321602 2486.083290 1.132749 -8.678234 -0.153506 1.163103 7.852404 32.132031 15.967396 7.099698 0.000009 -0.000001 3.343295 -30.785688 -3.221238 -3.146684 -0.000007 0.000004 7.785501 46.231566 -6.931948 -6.111315 -0.000004 0.000008 2.173903 7.579792 -2.093352 7.838994 2.676297 -1.652398 4.938302 11.011837 -14.023512 0.704017 4.298999 0.000005 -0.000004 -373.509359 -2.939466 284.586088 -0.000013 0.000004 -10.245099 19.515544 704.736132 361.471178 -0.000003 0.000007 -12.703295 874.671566 -173.130761 510.373646 -2.534598 -1.686394 5.195000 -7.748803 -17.933089 13.804444 -4.144105 0.000008 -0.000001 206.797200 185.131335 -79.453624 -0.000016 -0.000008 -10.116492 -406.414670 -369.564133 -368.986135 -0.000003 -0.000014 -12.937796 -1728.043324 -7.582529 29.880988 2.175594 0.064499 -2.662903 -1064.506402 -8.833716 9.583339 -0.000000 -0.000008 -18.585804 540.635701 -212.104968 -169.477047 -0.000005 -0.000001 -18.979504 718.007080 7.981622 -737.992979 -2.092402 -0.058099 -2.581202 1346.836260 -33.602400 -55.788760 0.000008 0.000001 -18.665020 -1092.375431 147.162709 -639.001626 -0.000010 0.000004 -18.566603 641.454375 -8.763889 -455.580229
67.086105 5.673695 43.303791 2486.093782 1.224862 -8.564384 -0.153494 1.163101 7.852412 32.166281 15.803637 6.920301 0.000011 -0.000004 3.343298 -30.916213 -3.206680 -3.153096 0.000003 0.000001 7.785503 46.884208 -6.995803 -6.238214 -0.000005 0.000004 2.173912 7.364750 -1.977765 7.859044 2.676295 -1.652400 4.938302 11.121411 -14.050899 0.805969 4.299005 0.000004 -0.000009 -373.506654 -2.850522 284.528578 -0.000004 -0.000012 -10.245109 19.612649 704.694878 361.544698 -0.000003 -0.000004 -12.703302 874.765276 -173.310012 510.337091 -2.534600 -1.686395 5.194995 -7.871466 -18.145391 14.011428 -4.144100 -0.000000 -0.000005 207.122017 185.131731 -79.650995 -0.000010 0.000001 -10.116504 -406.059391 -369.621452 -368.901003 0.000000 -0.000001 -12.937806 -1728.532475 -7.577477 30.179782 2.175599 0.064501 -2.662887 -1064.449574 -9.062686 9.573175 -0.000001 -0.000006 -18.585812 539.899024 -212.323315 -169.224562 -0.000015 -0.000004 -18.979502 718.590706 7.742663 -738.878608 -2.092396 -0.058100 -2.581186 1346.574855 -33.465827 -55.906874 0.000006 -0.000003 -18.665005 -1092.438815 147.030395 -639.149377 -0.000008 0.000005 -18.566603 641.502787 -8.711250 -455.656563
67.098000 5.658001 43.277897 2485.858386 1.342893 -8.534096 -0.153498 1.163100 7.852397 32.449546 15.570506 6.762359 0.000003 0.000004 3.343301 -30.966589 -3.141322 -3.152515 0.000006 0.000001 7.785500 47.084370 -6.703887 -6.111643 0.000009 0.000008 2.173902 7.377908 -2.004914 7.845836 2.676300 -1.652400 4.938296 10.909821 -13.833764 0.839399 4.298998 -0.000002 0.000000 -373.223120 -3.054115 284.572127 -0.000002 0.000002 -10.245095 19.341322 704.676900 361.496204 -0.000001 0.000006 -12.703305 875.009524 -173.315463 510.326600 -2.534602 -1.686402 5.194999 -7.689965 -18.003545 14.588733 -4.144107 0.000003 -0.000004 207.003049 185.429350 -79.865238 0.000008 -0.000001 -10.116491 -405.841426 -369.738057 -368.929198 0.000005 -0.000001 -12.937809 -1728.698367 -7.445066 30.358808 2.175598 0.064489 -2.662903 -1064.249805 -9.280641 9.634200 0.000002 -0.000004 -18.585804 539.148031 -212.526185 -168.937079 0.000003 -0.000001 -18.979504 719.085212 7.486872 -738.811345 -2.092399 -0.058103 -2.581194 1346.534966 -33.442751 -56.009047 0.000007 0.000003 -18.665001 -1092.530395 146.994113 -639.221394 -0.000011 -0.000000 -18.566601 641.557811 -8.604201 -455.625691
67.112503 5.633907 43.250595 2485.647907 1.445932 -8.526161 -0.153495 1.163101 7.852410 32.669488 15.512348 6.736662 -0.000010 -0.000000 3.343302 -31.191100 -3.111472 -3.169534 -0.000001 0.000003 7.785501 47.387443 -6.691786 -6.111063 -0.000006 0.000003 2.173912 7.495054 -1.935938 7.833373 2.676289 -1.652393 4.938297 11.186477 -13.944442 0.824292 4.299007 0.000001 0.000002 -373.374859 -2.796094 284.633435 0.000000 -0.000010 -10.245114 19.542501 704.759027 361.480221 0.000002 0.000008 -12.703310 874.863850 -173.027529 510.216333 -2.534602 -1.686395 5.194998 -7.366090 -17.881529 14.827458 -4.144107 -0.000003 0.000001 206.811885 185.648175 -79.961872 0.000014 -0.000002 -10.116489 -405.517729 -369.910396 -368.963486 0.000000 -0.000007 -12.937809 -1728.923818 -7.295265 30.608892 2.175601 0.064488 -2.662890 -1064.118775 -9.433372 9.721640 -0.000003 -0.000006 -18.585798 538.612216 -212.656260 -168.747173 -0.000003 0.000003 -18.979502 719.260884 7.219647 -737.597811 -2.092394 -0.058101 -2.581186 1346.453004 -33.410342 -56.116879 0.000001 0.000002 -18.665005 -1092.499577 147.183077 -639.320733 -0.000006 0.000001 -18.566597 641.487378 -8.493331 -455.717817
67.124496 5.618305 43.236092 2485.538624 1.478435 -8.439656 -0.153493 1.163104 7.852403 32.804979 15.496938 6.567628 -0.000002 0.000004 3.343304 -31.375819 -3.085241 -3.176381 -0.000008 -0.000009 7.785508 47.629706 -6.736803 -6.020810 0.000001 0.000005 2.173901 7.538001 -1.833677 7.737856 2.676288 -1.652408 4.938300 11.331596 -13.857315 0.835875 4.298991 0.000003 -0.000004 -373.601758 -2.474097 284.559205 0.000002 -0.000009 -10.245110 19.887117 704.939289 361.397849 -0.000009 0.000002 -12.703303 874.728011 -172.609085 510.063993 -2.534602 -1.686398 5.194998 -7.208312 -17.851458 15.115000 -4.144100 -0.000005 0.000011 206.774989 185.904908 -80.084132 -0.000006 -0.000003 -10.116490 -405.420823 -369.968015 -369.094762 -0.000007 -0.000003 -12.937811 -1728.784591 -7.140821 30.762779 2.175603 0.064504 -2.662902 -1064.064570 -9.545776 9.680540 0.000002 0.000001 -18.585804 538.342396 -212.799407 -168.626934 -0.000006 -0.000005 -18.979504 719.250776 7.092214 -736.842119 -2.092398 -0.058107 -2.581194 1346.414099 -33.331740 -56.137748 0.000003 0.000005 -18.665007 -1092.520013 147.180181 -639.464057 0.000000 0.000005 -18.566601 641.493170 -8.475251 -455.848765
67.137009 5.610203 43.226891 2485.421472 1.562442 -8.315427 -0.153503 1.163101 7.852407 32.969357 15.378497 6.328256 0.000013 0.000003 3.343292 -31.300612 -3.066342 -3.235903 -0.000004 0.000004 7.785498 47.581840 -6.606655 -5.773739 0.000002 0.000001 2.173902 7.629997 -1.832203 7.764850 2.676295 -1.652392 4.938300 11.297973 -13.854009 1.024039 4.299004 0.000007 -0.000003 -373.788741 -2.318198 284.529288 -0.000004 0.000008 -10.245103 19.899106 705.128950 361.303074 0.000004 -0.000001 -12.703301 874.350821 -172.561191 509.789419 -2.534595 -1.686392 5.194999 -7.267017 -17.895784 15.471990 -4.144106 0.000000 -0.000004 206.864068 186.058164 -80.149101 -0.000000 -0.000001 -10.116488 -405.677911 -369.818352 -369.048836 0.000005 0.000000 -12.937802 -1727.983983 -7.628263 30.082148 2.175595 0.064488 -2.662903 -1063.956599 -9.683958 9.620588 0.000005 -0.000002 -18.585796 538.164210 -212.870099 -168.579819 -0.000001 0.000005 -18.979504 719.243290 6.893882 -736.187951 -2.092396 -0.058105 -2.581194 1346.393882 -33.208554 -56.209209 0.000004 -0.000001 -18.665007 -1092.575856 146.837579 -639.623447 0.000007 0.000003 -18.566597 641.638680 -8.423976 -456.005286
